<svg width="26" height="26" viewBox="0 0 26 26" xmlns="http://www.w3.org/2000/svg">
<g clip-path="url(#clip0_545_6667)">
<path d="M9.71212 2.46996C11.043 2.46996 12.1228 3.54926 12.1228 4.88067V9.7021C12.1228 11.033 11.043 12.1128 9.71212 12.1128H4.89069C3.55928 12.1128 2.47998 11.033 2.47998 9.7021V4.88067C2.47998 3.54926 3.55928 2.46996 4.89069 2.46996H9.71212ZM8.90855 5.68425H5.69427V8.89853H8.90855V5.68425ZM9.71212 14.3271C11.043 14.3271 12.1228 15.4069 12.1228 16.7378V21.5592C12.1228 22.8902 11.043 23.97 9.71212 23.97H4.89069C3.55928 23.97 2.47998 22.8902 2.47998 21.5592V16.7378C2.47998 15.4069 3.55928 14.3271 4.89069 14.3271H9.71212ZM8.90855 17.5414H5.69427V20.7557H8.90855V17.5414ZM14.3371 16.7378C14.3371 15.4064 15.4169 14.3271 16.7478 14.3271H21.5693C22.9002 14.3271 23.98 15.4064 23.98 16.7378V21.5592C23.98 22.8902 22.9002 23.97 21.5693 23.97H16.7478C15.4169 23.97 14.3371 22.8902 14.3371 21.5592V16.7378ZM17.5514 20.7557H20.7657V17.5414H17.5514V20.7557Z"/>
<path fill-rule="evenodd" clip-rule="evenodd" d="M18.4988 1.20811C19.4383 0.26473 20.965 0.261957 21.9081 1.20113L25.3243 4.6034C26.2673 5.54257 26.2708 7.06927 25.3313 8.01266L21.929 11.4289C20.9899 12.3719 19.4628 12.3751 18.5198 11.4359L15.1035 8.03361C14.1605 7.09444 14.1574 5.56738 15.0965 4.62435L18.4988 1.20811ZM20.2186 8.59135L17.9411 6.32316L20.2093 4.04567L22.4868 6.31385L20.2186 8.59135Z"/>
</g>
<defs>
<clipPath id="clip0_545_6667">
<rect width="26" height="26" fill="white"/>
</clipPath>
</defs>
</svg>
