<svg width="26" height="26" viewBox="0 0 26 26" xmlns="http://www.w3.org/2000/svg">
<path transform="translate(13, 0) scale(-1, 1) translate(-13, 0)" d="M24.704 12.75C24.704 13.6488 24.0236 14.375 23.1247 14.375H7.55014L12.9025 19.7273C13.5372 20.3621 13.5372 21.3904 12.9025 22.0252C12.5826 22.3426 12.1662 22.5 11.7497 22.5C11.3333 22.5 10.9179 22.3413 10.6011 22.0239L2.47607 13.8989C1.84131 13.2642 1.84131 12.2358 2.47607 11.6011L10.6011 3.47607C11.2358 2.84131 12.2642 2.84131 12.8989 3.47607C13.5337 4.11084 13.5337 5.13916 12.8989 5.77393L7.55014 11.125H23.1247C24.0236 11.125 24.704 11.8512 24.704 12.75Z"/>
</svg>
