<svg width="26" height="26" viewBox="0 0 26 26" xmlns="http://www.w3.org/2000/svg">
  <path d="M20.1139 17.9926L6.97799 4.85669C6.50486 4.38355 5.64643 4.47487 5.06065 5.06066C4.47486 5.64645 4.38354 6.50487 4.85667 6.97801L17.9925 20.1139C18.4657 20.587 19.3241 20.4957 19.9099 19.9099C20.4957 19.3241 20.587 18.4657 20.1139 17.9926Z" />
  <path d="M18.1139 5.00744L4.97799 18.1433C4.50486 18.6164 4.59618 19.4749 5.18197 20.0607C5.76775 20.6464 6.62618 20.7378 7.09931 20.2646L20.2352 7.12877C20.7083 6.65563 20.617 5.7972 20.0312 5.21142C19.4454 4.62563 18.587 4.53431 18.1139 5.00744Z" />
</svg>
