<svg width="26" height="26" viewBox="0 0 26 26" xmlns="http://www.w3.org/2000/svg">
<path d="M14.7143 2.71429C14.7143 1.76768 15.4804 1 16.4286 1H23.2375C23.5161 1 23.7411 1.04607 23.9393 1.13018C24.0946 1.21321 24.3304 1.33589 24.4964 1.49821C24.4964 1.50089 24.4964 1.50357 24.5018 1.50571C24.8339 1.83893 24.9518 2.27393 25 2.70893C25 2.71107 25 2.71268 25 2.71429V9.57143C25 10.5196 24.2339 11.2857 23.2857 11.2857C22.3375 11.2857 21.5714 10.5196 21.5714 9.57143V6.85536L12.4964 15.925C11.8268 16.5946 10.7446 16.5946 10.075 15.925C9.40536 15.2554 9.40536 14.1732 10.075 13.5036L19.1446 4.42857H16.4286C15.4804 4.42857 14.7143 3.66089 14.7143 2.71429ZM1 6.14286C1 4.24911 2.53482 2.71429 4.42857 2.71429H9.57143C10.5196 2.71429 11.2857 3.48196 11.2857 4.42857C11.2857 5.37679 10.5196 6.14286 9.57143 6.14286H4.42857V21.5714H19.8571V16.4286C19.8571 15.4804 20.6232 14.7143 21.5714 14.7143C22.5196 14.7143 23.2857 15.4804 23.2857 16.4286V21.5714C23.2857 23.4625 21.7482 25 19.8571 25H4.42857C2.53482 25 1 23.4625 1 21.5714V6.14286Z"/>
</svg>
