<svg width="26" height="26" viewBox="0 0 26 26" xmlns="http://www.w3.org/2000/svg">
  <path d="M12.478 1.073c-.299.081-.437.168-.628.395-.065.076-.789 1.517-1.61 3.203a220.527 220.527 0 0 1-1.523 3.095c-.017.017-1.502.249-3.301.514-2.043.302-3.356.515-3.496.567a1.425 1.425 0 0 0-.881 1.568c.106.534-.111.293 2.953 3.294l2.149 2.107-.556 3.304c-.307 1.818-.557 3.426-.558 3.574a1.407 1.407 0 0 0 .801 1.267c.334.158.798.173 1.13.037.141-.058 1.54-.791 3.108-1.629l2.852-1.524 2.933 1.565c1.614.861 3.019 1.595 3.122 1.63.289.099.764.054 1.068-.1.402-.203.707-.627.779-1.082.02-.125-.133-1.133-.538-3.56a305.06 305.06 0 0 1-.565-3.449c0-.035 1.083-1.124 2.407-2.42 2.182-2.136 2.42-2.383 2.546-2.638.121-.246.138-.324.138-.628-.001-.269-.023-.397-.1-.565-.171-.374-.587-.725-.968-.817-.063-.015-1.575-.243-3.358-.506-1.784-.263-3.256-.492-3.271-.509-.016-.017-.689-1.393-1.496-3.058-1.032-2.13-1.516-3.084-1.631-3.216-.351-.401-.952-.568-1.506-.419m.912 4.744c1.699 3.492 1.619 3.339 1.92 3.657.342.363.709.587 1.149.702.183.048 1.303.229 2.489.402 1.185.173 2.155.328 2.155.344 0 .016-.755.77-1.679 1.676-1.782 1.749-1.914 1.904-2.087 2.461-.18.579-.177.62.256 3.223.219 1.317.39 2.403.379 2.414-.01.01-.904-.454-1.986-1.031-1.082-.577-2.094-1.099-2.249-1.158-.247-.095-.349-.108-.824-.108-.446.001-.586.018-.792.094-.138.052-1.149.573-2.247 1.16-1.098.586-2.004 1.058-2.015 1.047-.011-.011.159-1.07.376-2.354.436-2.575.449-2.741.257-3.314-.181-.54-.311-.691-2.089-2.441-.933-.918-1.687-1.676-1.677-1.685.01-.009 1.037-.167 2.281-.35 1.305-.192 2.372-.371 2.523-.422.338-.114.712-.357.998-.65.201-.205.326-.432 1.061-1.922.458-.93.937-1.91 1.064-2.178s.244-.487.26-.487c.016 0 .231.414.477.92" fill-rule="evenodd"/>
</svg>
