<svg width="26" height="26" viewBox="0 0 26 26" xmlns="http://www.w3.org/2000/svg">
<path d="M17.1193 7.78615L23.6058 8.74309C24.1429 8.81983 24.5943 9.19899 24.7658 9.71809C24.9374 10.2417 24.7974 10.8105 24.4092 11.1986L19.7058 15.8118L20.8162 22.4292C20.9065 22.9709 20.6853 23.5216 20.2339 23.8421C19.787 24.1625 19.1957 24.2032 18.7127 23.9459L12.9169 20.8539L7.12557 23.9459C6.63807 24.2032 6.04675 24.1625 5.59988 23.8421C5.153 23.5216 4.92731 22.9709 5.0221 22.4292L6.13252 15.8118L1.42814 11.1986C1.0395 10.8105 0.901374 10.2417 1.072 9.71809C1.24217 9.19899 1.69221 8.81983 2.23342 8.74309L8.71446 7.78615L11.6214 1.81291C11.8606 1.31566 12.3662 1 12.9169 1C13.4721 1 13.9776 1.31566 14.2169 1.81291L17.1193 7.78615Z"/>
</svg>
