<svg width="26" height="26" viewBox="0 0 26 26" xmlns="http://www.w3.org/2000/svg">
<path d="M24.7885 5H6.21154C5.54242 5 5 5.67157 5 6.5C5 7.32843 5.54242 8 6.21154 8H24.7885C25.4576 8 26 7.32843 26 6.5C26 5.67157 25.4576 5 24.7885 5Z"/>
<path d="M24.8409 12H10.1591C9.51894 12 9 12.6716 9 13.5C9 14.3284 9.51894 15 10.1591 15H24.8409C25.4811 15 26 14.3284 26 13.5C26 12.6716 25.4811 12 24.8409 12Z"/>
<path d="M24.9688 19H16.0312C15.4617 19 15 19.6716 15 20.5C15 21.3284 15.4617 22 16.0312 22H24.9688C25.5383 22 26 21.3284 26 20.5C26 19.6716 25.5383 19 24.9688 19Z"/>
</svg>
