<svg width="26" height="26" viewBox="0 0 26 26" xmlns="http://www.w3.org/2000/svg">
<path d="M24.7885 5H6.21154C5.54242 5 5 5.67157 5 6.5C5 7.32843 5.54242 8 6.21154 8H24.7885C25.4576 8 26 7.32843 26 6.5C26 5.67157 25.4576 5 24.7885 5Z"/>
<path d="M24.8409 12H10.1591C9.51894 12 9 12.6716 9 13.5C9 14.3284 9.51894 15 10.1591 15H24.8409C25.4811 15 26 14.3284 26 13.5C26 12.6716 25.4811 12 24.8409 12Z"/>
<path d="M24.9688 19H16.0312C15.4617 19 15 19.6716 15 20.5C15 21.3284 15.4617 22 16.0312 22H24.9688C25.5383 22 26 21.3284 26 20.5C26 19.6716 25.5383 19 24.9688 19Z"/>
<path fill-rule="evenodd" clip-rule="evenodd" d="M1.00012 6.4561L3.11878 8.58008L7.92488 3.77398C8.3682 3.33066 8.25271 2.4964 7.66692 1.91062C7.08114 1.32483 6.24688 1.20934 5.80356 1.65266L1.00012 6.4561Z"/>
<path fill-rule="evenodd" clip-rule="evenodd" d="M3.12514 8.57886L5.79602 11.2497C6.22713 11.6808 7.05149 11.5555 7.63728 10.9697C8.22306 10.3839 8.34845 9.55953 7.91734 9.12842L5.24315 6.45422L3.12514 8.57886Z"/>
</svg>
