<svg width="26" height="26" viewBox="0 0 26 26" xmlns="http://www.w3.org/2000/svg">
<path d="M23.9936 12.4795C23.9936 13.2178 23.4467 13.7961 22.8269 13.7961H21.6602L21.6857 20.3627C21.6857 20.4775 21.6784 20.5842 21.6674 20.6949V21.3594C21.6674 22.2658 21.0148 23 20.209 23H19.6257C19.5856 23 19.5455 22.9631 19.5054 22.9959C19.4543 22.9631 19.4033 23 19.3522 23H17.2923C16.4865 23 15.8339 22.2658 15.8339 21.3594V17.75C15.8339 17.024 15.3125 16.4375 14.6672 16.4375H12.3337C11.6884 16.4375 11.167 17.024 11.167 17.75V21.3594C11.167 22.2658 10.5144 23 9.70861 23H7.67051C7.61582 23 7.56113 22.9959 7.50644 22.9918C7.46269 22.9959 7.41893 23 7.37518 23H6.79182C5.98643 23 5.33343 22.2658 5.33343 21.3594V16.7656C5.33343 16.7287 5.33452 16.6877 5.33671 16.6508V13.7961H4.16854C3.51117 13.7961 3 13.2178 3 12.4795C3 12.1104 3.10953 11.7822 3.36496 11.4951L12.7129 2.32878C12.9681 2.0411 13.2598 2 13.515 2C13.7702 2 14.0619 2.0822 14.2843 2.28768L23.5925 11.4951C23.8842 11.7822 24.0337 12.1104 23.9936 12.4795Z"/>
</svg>
