<svg xmlns="http://www.w3.org/2000/svg" width="26" height="26" viewBox="0 0 26 26">
  <path d="M15.3438 2.84375C15.3438 4.13818 14.2944 5.1875 13 5.1875C11.7056 5.1875 10.6562 4.13818 10.6562 2.84375C10.6562 1.54932 11.7056 0.5 13 0.5C14.2944 0.5 15.3438 1.54932 15.3438 2.84375ZM13 20.8125C11.7056 20.8125 10.6562 21.8618 10.6562 23.1562C10.6562 24.4507 11.7056 25.5 13 25.5C14.2944 25.5 15.3438 24.4507 15.3438 23.1562C15.3438 21.8618 14.2944 20.8125 13 20.8125ZM23.1562 10.6562C21.8618 10.6562 20.8125 11.7056 20.8125 13C20.8125 14.2944 21.8618 15.3438 23.1562 15.3438C24.4507 15.3438 25.5 14.2944 25.5 13C25.5 11.7056 24.4507 10.6562 23.1562 10.6562ZM5.1875 13C5.1875 11.7056 4.13818 10.6562 2.84375 10.6562C1.54932 10.6562 0.5 11.7056 0.5 13C0.5 14.2944 1.54932 15.3438 2.84375 15.3438C4.13818 15.3438 5.1875 14.2944 5.1875 13ZM5.81846 17.8378C4.52402 17.8378 3.47471 18.8871 3.47471 20.1815C3.47471 21.476 4.52402 22.5253 5.81846 22.5253C7.11289 22.5253 8.16221 21.476 8.16221 20.1815C8.16221 18.8872 7.11284 17.8378 5.81846 17.8378ZM20.1815 17.8378C18.8871 17.8378 17.8378 18.8871 17.8378 20.1815C17.8378 21.476 18.8871 22.5253 20.1815 22.5253C21.476 22.5253 22.5253 21.476 22.5253 20.1815C22.5253 18.8872 21.476 17.8378 20.1815 17.8378ZM5.81846 3.47471C4.52402 3.47471 3.47471 4.52402 3.47471 5.81846C3.47471 7.11289 4.52402 8.16221 5.81846 8.16221C7.11289 8.16221 8.16221 7.11289 8.16221 5.81846C8.16221 4.52402 7.11284 3.47471 5.81846 3.47471Z" />
</svg>