<svg width="26" height="26" viewBox="0 0 26 26" xmlns="http://www.w3.org/2000/svg">
  <path d="M22.471 20.35L17.636 15.515C18.7572 13.8658 19.223 11.8577 18.9422 9.88326C18.6615 7.90887 17.6544 6.11017 16.1179 4.83886C14.5814 3.56755 12.626 2.91503 10.634 3.00888C8.64194 3.10274 6.75652 3.93623 5.34637 5.34637C3.93623 6.75652 3.10274 8.64194 3.00888 10.634C2.91503 12.626 3.56755 14.5814 4.83886 16.1179C6.11017 17.6544 7.90887 18.6615 9.88326 18.9422C11.8577 19.223 13.8658 18.7572 15.515 17.636L20.35 22.471L22.471 20.35ZM6.02198 11.022C6.02198 10.0331 6.31523 9.06638 6.86464 8.24413C7.41404 7.42189 8.19494 6.78102 9.10857 6.40259C10.0222 6.02415 11.0275 5.92513 11.9974 6.11806C12.9673 6.31098 13.8583 6.78719 14.5575 7.48645C15.2568 8.18571 15.733 9.07663 15.9259 10.0465C16.1188 11.0164 16.0198 12.0218 15.6414 12.9354C15.2629 13.849 14.6221 14.6299 13.7998 15.1793C12.9776 15.7287 12.0109 16.022 11.022 16.022C9.69639 16.0204 8.42554 15.4931 7.4882 14.5558C6.55087 13.6184 6.02357 12.3476 6.02198 11.022Z" />
</svg>
