<svg viewBox="0 0 26 26" xmlns="http://www.w3.org/2000/svg">
  <path d="M21.3571 4.25001H16.5357L16.158 3.51954C16.078 3.36337 15.9548 3.23201 15.8022 3.14022C15.6496 3.04844 15.4736 2.99988 15.2942 3.00001H10.7018C10.5227 2.99934 10.3471 3.04772 10.1951 3.1396C10.043 3.23149 9.92062 3.36316 9.84196 3.51954L9.46429 4.25001H4.64286C4.47236 4.25001 4.30885 4.31585 4.18829 4.43306C4.06773 4.55027 4 4.70925 4 4.87501V6.12501C4 6.29077 4.06773 6.44974 4.18829 6.56695C4.30885 6.68416 4.47236 6.75001 4.64286 6.75001H21.3571C21.5276 6.75001 21.6912 6.68416 21.8117 6.56695C21.9323 6.44974 22 6.29077 22 6.12501V4.87501C22 4.70925 21.9323 4.55027 21.8117 4.43306C21.6912 4.31585 21.5276 4.25001 21.3571 4.25001ZM6.1375 21.2422C6.16816 21.7182 6.38426 22.165 6.74181 22.4915C7.09936 22.8181 7.57147 22.9999 8.06205 23H17.9379C18.4285 22.9999 18.9006 22.8181 19.2582 22.4915C19.6157 22.165 19.8318 21.7182 19.8625 21.2422L20.7143 8H5.28571L6.1375 21.2422Z" />
</svg>
