<svg viewBox="0 0 90 90" xmlns="http://www.w3.org/2000/svg" fill="#e72429">
  <path class="cls-1" d="M169,106.63V93.82h6.29c2.35,0,3.65,1.46,3.65,3.26a2.88,2.88,0,0,1-2.23,2.94,3.15,3.15,0,0,1,2.48,3.15c0,2-1.32,3.46-3.72,3.46Zm7.64-9.16a1.64,1.64,0,0,0-1.81-1.67H171.2v3.32h3.59a1.62,1.62,0,0,0,1.81-1.65m.25,5.39a1.76,1.76,0,0,0-2-1.76H171.2v3.55h3.69a1.73,1.73,0,0,0,2-1.79"/>
  <path class="cls-2" d="M13.14,45.2a13.09,13.09,0,0,0-11.49-13,51.92,51.92,0,0,0,0,26,13.09,13.09,0,0,0,11.49-13"/>
  <path class="cls-2" d="M20.75,41.1a4.11,4.11,0,1,0,4.11,4.1,4.11,4.11,0,0,0-4.11-4.1"/>
  <path class="cls-2" d="M77.43,45.2a13.09,13.09,0,0,0,11.49,13,51.92,51.92,0,0,0,0-26,13.09,13.09,0,0,0-11.49,13"/>
  <path class="cls-2" d="M69.82,41.1a4.11,4.11,0,1,0,4.11,4.1,4.11,4.11,0,0,0-4.11-4.1"/>
  <path class="cls-2" d="M45.2,77.47A13.1,13.1,0,0,0,32.21,89a52.27,52.27,0,0,0,26,0,13.1,13.1,0,0,0-13-11.49"/>
  <path class="cls-2" d="M45.2,65.75a4.11,4.11,0,1,0,4.11,4.11,4.1,4.1,0,0,0-4.11-4.11"/>
  <path class="cls-2" d="M45.2,13.14a13.1,13.1,0,0,0,13-11.49,52,52,0,0,0-26,0,13.1,13.1,0,0,0,13,11.49"/>
  <path class="cls-2" d="M45.2,16.64a4.11,4.11,0,1,0,4.11,4.11,4.1,4.1,0,0,0-4.11-4.11"/>
  <path class="cls-2" d="M68,68a13.1,13.1,0,0,0-1.06,17.3A52,52,0,0,0,85.27,66.9,13.11,13.11,0,0,0,68,68"/>
  <path class="cls-2" d="M59.69,59.69a4.1,4.1,0,1,0,5.81,0,4.09,4.09,0,0,0-5.81,0"/>
  <path class="cls-2" d="M22.5,22.5A13.09,13.09,0,0,0,23.57,5.21,52,52,0,0,0,5.2,23.57,13.09,13.09,0,0,0,22.5,22.5"/>
  <path class="cls-2" d="M25,25a4.11,4.11,0,1,0,5.81,0A4.12,4.12,0,0,0,25,25"/>
  <path class="cls-2" d="M68,22.46a13.1,13.1,0,0,0,17.29,1.07A52,52,0,0,0,66.88,5.16,13.09,13.09,0,0,0,68,22.46"/>
  <path class="cls-2" d="M65.47,30.75a4.11,4.11,0,1,0-5.81,0,4.12,4.12,0,0,0,5.81,0"/>
  <path class="cls-2" d="M22.48,67.92a13.11,13.11,0,0,0-17.3-1.07A52,52,0,0,0,23.55,85.22a13.11,13.11,0,0,0-1.07-17.3"/>
  <path class="cls-2" d="M25,59.64a4.1,4.1,0,1,0,5.81,0,4.1,4.1,0,0,0-5.81,0"/>
</svg>