<svg viewBox="0 0 142 126" xmlns="http://www.w3.org/2000/svg">
  <g transform="translate(-0.000050, 3.999225)">
    <path d="M67.4085879,-1.29699426 C68.5875325,-1.56801602 69.8108119,-1.56783002 70.9874128,-1.29583293 L70.9874128,-1.29583293 L137.31816,13.9861088 C138.100409,14.1661885 138.697435,14.5739847 139.119315,15.0886636 C139.584277,15.655902 139.83582,16.3644732 139.856532,17.0827059 C139.87724,17.8007853 139.66705,18.5226153 139.235582,19.1157937 C138.844227,19.6538262 138.271912,20.0954295 137.501973,20.3204887 L137.501973,20.3204887 L107.82865,29.0047989 L107.82865,85.4468752 C107.82865,87.7314119 107.291657,89.9876954 106.247649,92.0187667 C96.7973976,110.398678 79.4744781,120.330494 72.6406281,123.672372 C70.4456088,124.745822 67.879185,124.744689 65.6849713,123.671029 C58.8562396,120.327115 41.5557525,110.395467 32.1087267,92.0179138 C31.0647299,89.9879821 30.5276498,87.7315648 30.5276498,85.4468752 L30.5276498,85.4468752 L30.5276498,29.0067455 L26.3226498,27.7758857 L26.3226498,41.5158752 C26.3226498,42.4642829 25.8597463,43.2742063 25.1717655,43.7735933 C24.4833017,44.2733308 23.5694361,44.4621145 22.6688748,44.1680534 L22.6688748,44.1680534 L17.5224186,42.4908799 C16.947408,42.3046241 16.465428,41.9436179 16.1271751,41.478045 C15.7890899,41.0127031 15.5946498,40.44286 15.5946498,39.8388752 L15.5946498,39.8388752 L15.5946498,24.6177586 L0.857555321,20.3178476 C0.0868420623,20.0930014 -0.485788236,19.6514382 -0.877375293,19.113257 C-1.30898564,18.5200694 -1.51931217,17.798054 -1.4985981,17.079757 C-1.47788375,16.3614502 -1.22629959,15.6527847 -0.761179532,15.0854878 C-0.339252159,14.5708722 0.257849374,14.1630971 1.040107,13.9831164 L1.040107,13.9831164 Z M91.0326498,41.3518752 C84.4644428,41.3518752 79.0667111,43.2075832 74.5477351,47.0665583 L74.2060065,47.6509847 C74.7154096,48.0058419 78.2545779,50.3278752 83.1216498,50.3278752 C83.7698273,50.3278752 84.4242098,50.2871348 85.0699449,50.2056087 C85.6027645,50.1151496 90.4109047,49.2193222 95.1140732,45.9982913 L100.412693,42.4040098 L98.273219,42.0327938 C95.677614,41.575547 93.310819,41.3518752 91.0326498,41.3518752 Z M47.4416498,40.7278752 C45.1922129,40.7278752 42.8625639,40.9888704 40.3305536,41.5217235 L37.8774915,42.0369632 L43.3157402,45.8496556 C48.0881171,49.206142 53.0350852,50.1116499 53.5544679,50.1993356 C54.2026861,50.2809331 54.8596787,50.3178752 55.5086498,50.3178752 C60.2542888,50.3178752 63.7093804,48.0898329 64.564363,47.4511637 L64.0906817,47.0524403 C59.0964433,42.7877999 53.6535667,40.7278752 47.4416498,40.7278752 Z" id="Black" stroke="#FFFFFF" stroke-width="3" fill="#000000" stroke-linejoin="round"/>
    <path d="M69.2881498,54.0341752 C69.2881498,54.0341752 63.7661498,58.3841752 55.5091498,58.3841752 C54.5191498,58.3841752 53.4421498,58.3211752 52.3791498,58.1821752 C52.3791498,58.1821752 45.5041498,57.2331752 38.5841498,52.4441752 L38.5841498,62.3201752 L38.5841498,85.5541752 C38.5841498,86.5381752 38.8111498,87.5091752 39.2391498,88.3941752 C48.6791498,107.902175 69.2001498,116.026175 69.2001498,116.026175 C69.2001498,116.026175 89.3141498,107.909175 99.0801498,88.4211752 C99.5331498,87.5161752 99.7731498,86.5171752 99.7731498,85.5061752 L99.7731498,66.2021752 L99.7731498,52.6441752 C92.8521498,57.2461752 86.2571498,58.1821752 86.2571498,58.1821752 C85.1941498,58.3211752 84.1121498,58.3841752 83.1221498,58.3841752 C74.8531498,58.3841752 69.2881498,54.0341752 69.2881498,54.0341752 Z" id="Orange-Shield" fill="#E24301"/>
    <path d="M67.7476498,6.89197521 L20.6536498,17.7209752 L38.5836498,22.9659752 L38.5836498,33.6379752 C41.4976498,33.0549752 44.3516498,32.6719752 47.3976498,32.6719752 C54.3986498,32.6719752 61.9736498,34.6919752 69.2916498,40.9399752 C76.3346498,34.9259752 84.3036498,33.2959752 91.0736498,33.2959752 C94.2746498,33.2959752 97.2236498,33.6599752 99.7726498,34.0979752 L99.7726498,22.9659752 L117.68365,17.7209752 L70.6456498,6.89197521 C69.6926498,6.67297521 68.7016498,6.67297521 67.7476498,6.89197521" id="Orange-Hat" fill="#E24301"/>
    <path d="M69.1781498,110.122175 L69.1781498,59.7461752 C69.1781498,59.7461752 76.1621498,65.2321752 86.1591498,63.9181752 C86.1591498,63.9181752 89.9391498,63.3901752 94.6741498,61.1821752 L94.6741498,84.8921752 C94.6741498,85.8181752 94.3871498,86.7181752 93.8691498,87.4861752 C84.1571498,101.888175 69.1781498,110.122175 69.1781498,110.122175 Z" id="White-glare" fill-opacity="0.5" fill="#FFFFFF"/>
    <path d="M91.0326498,39.8518752 C93.3926498,39.8518752 95.8446498,40.0818752 98.5296498,40.5548752 L104.32765,41.5608752 L95.9616498,47.2358752 C90.8876498,50.7108752 85.6966498,51.6228752 85.2886498,51.6898752 C84.5706498,51.7818752 83.8426498,51.8278752 83.1216498,51.8278752 C77.6196498,51.8278752 73.6716498,49.1128752 73.2976498,48.8458752 L71.6916498,47.5318752 L73.5736498,45.9258752 C78.3596498,41.8388752 84.0706498,39.8518752 91.0326498,39.8518752 Z M47.4416498,39.2278752 C53.8416762,39.2278752 59.4747212,41.2851675 64.63895,45.5539116 L66.8586498,47.4208752 L65.2516498,48.8468752 L65.0637672,48.9760403 C64.1401262,49.5928677 60.4692151,51.8178752 55.5086498,51.8178752 C54.9678998,51.8178752 54.4220873,51.7942502 53.879228,51.7436252 L53.3376498,51.6838752 C52.9646498,51.6228752 47.6116498,50.7048752 42.4546498,47.0778752 L34.1846498,41.2798752 L40.0216498,40.0538752 C42.6636498,39.4978752 45.0946498,39.2278752 47.4416498,39.2278752 Z" id="Eyes" fill="#FFFFFF"/>
  </g>
</svg>