<?xml version="1.0" standalone="no"?>
<!DOCTYPE svg PUBLIC "-//W3C//DTD SVG 20010904//EN"
 "http://www.w3.org/TR/2001/REC-SVG-20010904/DTD/svg10.dtd">
<svg version="1.0" xmlns="http://www.w3.org/2000/svg"
 width="1329.000000pt" height="1329.000000pt" viewBox="0 0 1329.000000 1329.000000"
 preserveAspectRatio="xMidYMid meet">
<metadata>
Created by potrace 1.11, written by Peter Selinger 2001-2013
</metadata>
<g transform="translate(0.000000,1329.000000) scale(0.100000,-0.100000)"
fill="#000000" stroke="none">
<path d="M741 8384 l-143 -143 0 -1595 0 -1594 144 -144 144 -143 199 1 c110
1 203 2 206 3 3 0 69 65 147 143 141 140 142 142 142 187 1 25 1 273 1 551 l0
505 882 -1 c485 -1 889 -2 897 -3 14 -1 15 -67 15 -551 l0 -550 145 -143 145
-143 203 1 203 1 144 144 143 145 0 1592 1 1591 -145 144 -144 143 -204 0
-205 1 -143 -146 -144 -145 1 -547 c0 -482 -2 -548 -15 -549 -91 -6 -1760 -3
-1773 4 -10 4 -15 12 -12 17 3 5 6 249 7 542 l1 533 -144 145 -143 145 -206 1
-205 1 -144 -143z"/>
<path d="M4907 8380 l-144 -145 1 -1593 1 -1592 145 -143 145 -143 203 1 202
1 592 592 592 593 593 -593 593 -593 203 0 202 0 146 145 146 145 -2 203 -1
203 -592 592 -593 593 593 592 593 593 1 202 0 202 -143 145 -144 146 -202 -2
c-111 -1 -205 -2 -208 -3 -3 0 -471 -466 -1039 -1035 -569 -569 -1037 -1033
-1040 -1031 -3 2 -5 404 -5 894 l1 890 -143 143 -143 143 -205 0 -204 1 -144
-146z"/>
<path d="M9075 8381 l-145 -145 0 -1591 0 -1591 145 -144 144 -145 1591 0
1590 0 145 144 c139 138 145 146 145 185 1 55 1 3015 0 3088 l0 57 -143 144
-143 143 -203 0 -202 0 -145 -143 -145 -143 0 -1245 1 -1245 -190 0 c-105 0
-462 0 -795 0 -333 0 -651 0 -708 0 l-103 0 0 1244 1 1245 -143 143 -143 143
-204 1 -204 1 -146 -146z"/>
</g>
</svg>
